# xmcd CD database file
#
# Track frame offsets:
#	180
#	10922
#	22232
#	34874
#	49182
#	60235
#	72446
#	85292
#	98275
#	110149
#	121364
#	131984
#	143165
#	154554
#	167251
#	181643
#	192674
#	204964
#	217927
#	230786
#	242803
#	254035
#
# Disc length: 3527 seconds
#
# Revision: 0
# Processed by: cddbd v1.5.2PL0 Copyright (c) Steve Scherf et al.
# Submitted via: CDex 1.51
#
DISCID=370dc516
DTITLE=Patsy Cline - You Sing The Hits of Patsy Cline Revisited
DYEAR=1999
DGENRE=Country
TTITLE0=Your Cheatin' Heart (vocal)
TTITLE1=Love Letters In The Sand (vocal)
TTITLE2=Someday (You'll Want Me To Want You) (vocal)
TTITLE3=So Wrong (vocal)
TTITLE4=Leavin' On Your Mind (vocal)
TTITLE5=When I Get Through With You (vocal)
TTITLE6=You Took Him Off My Hands (vocal)
TTITLE7=If I Could See The World (Through The Eyes Of A Child) (vocal)
TTITLE8=A Poor Man's Roses (vocal)
TTITLE9=South Of The Border (vocal)
TTITLE10=I Love You So Much It Hurts (vocal)
TTITLE11=Your Cheatin' Heart
TTITLE12=Love Letters In The Sand
TTITLE13=Someday (You'll Want Me To Want You)
TTITLE14=So Wrong
TTITLE15=Leavin' On Your Mind
TTITLE16=When I Get Through With You
TTITLE17=You Took Him Off My Hands
TTITLE18=If I Could See The World (Through The Eyes Of A Child)
TTITLE19=A Poor Man's Roses
TTITLE20=South Of The Border
TTITLE21=I Love You So Much It Hurts
EXTD=YEAR: 1999
EXTT0=
EXTT1=
EXTT2=
EXTT3=
EXTT4=
EXTT5=
EXTT6=
EXTT7=
EXTT8=
EXTT9=
EXTT10=
EXTT11=
EXTT12=
EXTT13=
EXTT14=
EXTT15=
EXTT16=
EXTT17=
EXTT18=
EXTT19=
EXTT20=
EXTT21=
PLAYORDER=
